# xmcd
#
# Track frame offsets: 
#        150
#        11335
#        19144
#        29708
#        50418
#        64377
#        74511
#        87429
#        97402
#        113316
#        120976
#        134413
#        145878
#
# Disc length: 2105 seconds
#
# Revision: 0
# Processed by: cddbd v1.5.2PL0 Copyright (c) Steve Scherf et al.
# Submitted via: ExactAudioCopy v1.0b1
#
DISCID=b908370d
DTITLE=Larry McNeely - Rhapsody for Banjo
DYEAR=1976
DGENRE=Bluegrass
TTITLE0=Black Room
TTITLE1=Slipped Disk
TTITLE2=To Django
TTITLE3=Red Haired Boy
TTITLE4=Honeysuckle Rose
TTITLE5=Edson Breakaway
TTITLE6=Bluejazz
TTITLE7=Banjo Nova
TTITLE8=Space Circus
TTITLE9=Zubenelgenubi
TTITLE10=Limehouse Blues
TTITLE11=Sunstone
TTITLE12=Rhapsody No1
EXTD=
EXTT0=
EXTT1=
EXTT2=
EXTT3=
EXTT4=
EXTT5=
EXTT6=
EXTT7=
EXTT8=
EXTT9=
EXTT10=
EXTT11=
EXTT12=
PLAYORDER=
